<svg width="160" height="160" viewBox="0 0 160 160" fill="none" xmlns="http://www.w3.org/2000/svg">
<mask id="path-1-inside-1_2194_358" fill="white">
<path fill-rule="evenodd" clip-rule="evenodd" d="M160 0C146.481 15.7 125.014 38.3329 110.669 53.3554L110.652 53.3636C80.1529 84.9786 46.4473 118.147 13.7499 147.456L8.71765 151.968L0 160C3.03259 156.86 7.43686 151.448 11.8163 145.812C20.0217 135.268 25.0705 117.329 19.0136 105.43C6.73449 81.3014 10.6678 50.9756 30.8217 30.8217C50.9756 10.6595 81.3014 6.72623 105.43 19.0136C117.337 25.0705 135.268 20.0134 145.812 11.8164C151.448 7.43686 156.86 3.03259 160 0ZM106.587 34.5732C91.2916 23.3352 70.7246 20.972 53.5537 29.8384L53.5619 29.8466C23.0956 45.5797 16.8073 82.2765 34.6888 106.669C37.7545 109.644 42.5884 109.677 45.7037 106.785L45.9681 106.521C29.2682 89.8208 29.2682 62.6515 45.9681 45.9516C62.668 29.2517 89.8373 29.2517 106.537 45.9516L106.587 45.902C109.71 42.7702 109.71 37.7049 106.587 34.5732ZM48.7032 103.852C50.5211 105.67 53.4628 105.67 55.2724 103.843C71.0799 87.9285 87.8707 71.146 103.786 55.3303C105.62 53.5041 105.703 50.5128 103.876 48.6784L103.843 48.6454C88.6309 33.4328 63.8827 33.4328 48.6701 48.6454C33.4576 63.8579 33.4576 88.6061 48.6701 103.819L48.7032 103.852ZM124.352 67.2705C128.632 83.3341 124.021 100.579 112.304 112.288C100.554 124.039 83.2424 128.641 67.1374 124.295C61.254 122.708 55.1393 123.948 50.578 127.616C72.7481 140.854 100.769 137.417 119.096 119.089C137.416 100.769 140.853 72.7655 127.64 50.5954C123.996 55.1897 122.757 61.3375 124.335 67.2705H124.352ZM65.4761 113.718C63.2203 113.073 60.7909 113.586 59.0887 115.197L58.8904 115.379C74.6069 122.328 93.6701 119.378 106.536 106.521C119.393 93.6632 122.335 74.6166 115.402 58.9L115.22 59.0983C113.609 60.8088 113.097 63.2299 113.741 65.4857C117.501 78.6738 114.204 93.4566 103.842 103.827C93.4718 114.197 78.6724 117.494 65.4844 113.726L65.4761 113.718Z"/>
</mask>
<path d="M110.669 53.3554L111.116 54.2498L111.272 54.1719L111.392 54.046L110.669 53.3554ZM160 0L160.758 0.652498L159.305 -0.719304L160 0ZM110.652 53.3636L110.205 52.4692L110.052 52.5459L109.933 52.6693L110.652 53.3636ZM13.7499 147.456L13.0825 146.712L13.0824 146.712L13.7499 147.456ZM8.71765 151.968L8.05004 151.224L8.04006 151.233L8.71765 151.968ZM0 160L-0.719304 159.305L0.677585 160.735L0 160ZM11.8163 145.812L11.0272 145.198L11.0267 145.199L11.8163 145.812ZM19.0136 105.43L18.1223 105.883L18.1224 105.884L19.0136 105.43ZM30.8217 30.8217L31.5288 31.5288L31.5289 31.5286L30.8217 30.8217ZM105.43 19.0136L104.976 19.9047L104.977 19.9049L105.43 19.0136ZM145.812 11.8164L145.199 11.0267L145.198 11.0269L145.812 11.8164ZM53.5537 29.8384L53.0949 28.9498L51.8785 29.5779L52.8467 30.5456L53.5537 29.8384ZM106.587 34.5732L107.295 33.867L107.241 33.8127L107.179 33.7673L106.587 34.5732ZM53.5619 29.8466L54.0208 30.7351L55.237 30.107L54.2689 29.1393L53.5619 29.8466ZM34.6888 106.669L33.8823 107.261L33.9321 107.328L33.9924 107.387L34.6888 106.669ZM45.7037 106.785L46.384 107.518L46.3976 107.505L46.4107 107.492L45.7037 106.785ZM45.9681 106.521L46.6752 107.228L47.3823 106.521L46.6752 105.814L45.9681 106.521ZM45.9681 45.9516L45.261 45.2445L45.261 45.2445L45.9681 45.9516ZM106.537 45.9516L105.83 46.6587L106.537 47.3658L107.244 46.6586L106.537 45.9516ZM106.587 45.902L107.294 46.6091L107.295 46.6082L106.587 45.902ZM55.2724 103.843L54.5629 103.139L54.5621 103.14L55.2724 103.843ZM103.786 55.3303L104.49 56.0396L104.491 56.039L103.786 55.3303ZM103.876 48.6784L104.585 47.9729L104.584 47.9713L103.876 48.6784ZM103.843 48.6454L103.136 49.3525L103.136 49.3525L103.843 48.6454ZM112.304 112.288L111.597 111.581L111.597 111.581L112.304 112.288ZM124.352 67.2705L125.318 67.013L125.12 66.2705H124.352V67.2705ZM67.1374 124.295L67.398 123.329L67.3978 123.329L67.1374 124.295ZM50.578 127.616L49.9512 126.837L48.8312 127.738L50.0653 128.475L50.578 127.616ZM119.096 119.089L118.389 118.382L119.096 119.089ZM127.64 50.5954L128.499 50.0834L127.758 48.8385L126.857 49.9739L127.64 50.5954ZM124.335 67.2705L123.369 67.5275L123.566 68.2705H124.335V67.2705ZM59.0887 115.197L59.7644 115.934L59.7703 115.929L59.7761 115.923L59.0887 115.197ZM65.4761 113.718L66.1836 113.011L66.0002 112.828L65.7509 112.756L65.4761 113.718ZM58.8904 115.379L58.2146 114.642L57.0874 115.675L58.486 116.293L58.8904 115.379ZM106.536 106.521L107.243 107.228L107.243 107.228L106.536 106.521ZM115.402 58.9L116.317 58.4964L115.699 57.0959L114.665 58.2243L115.402 58.9ZM115.22 59.0983L115.948 59.7841L115.958 59.774L115.22 59.0983ZM113.741 65.4857L114.703 65.2116L114.703 65.211L113.741 65.4857ZM103.842 103.827L104.549 104.534L104.549 104.534L103.842 103.827ZM65.4844 113.726L64.777 114.433L64.9603 114.617L65.2097 114.688L65.4844 113.726ZM111.392 54.046C125.733 39.0275 147.219 16.3756 160.758 0.652498L159.242 -0.652498C145.743 15.0245 124.294 37.6383 109.946 52.6648L111.392 54.046ZM111.099 54.2581L111.116 54.2498L110.222 52.4609L110.205 52.4692L111.099 54.2581ZM14.4174 148.201C47.1377 118.871 80.8611 85.6848 111.372 54.0579L109.933 52.6693C79.4447 84.2724 45.7569 117.423 13.0825 146.712L14.4174 148.201ZM9.38519 152.713L14.4175 148.201L13.0824 146.712L8.0501 151.224L9.38519 152.713ZM0.677585 160.735L9.39523 152.704L8.04006 151.233L-0.677585 159.265L0.677585 160.735ZM11.0267 145.199C6.64636 150.835 2.27166 156.208 -0.719304 159.305L0.719304 160.695C3.79352 157.512 8.22736 152.06 12.6059 146.426L11.0267 145.199ZM18.1224 105.884C21.0117 111.56 21.2878 118.765 19.7846 125.924C18.2837 133.072 15.0321 140.052 11.0272 145.198L12.6055 146.426C16.8059 141.029 20.1814 133.767 21.742 126.335C23.3004 118.913 23.0724 111.199 19.9048 104.976L18.1224 105.884ZM30.1146 30.1146C9.64469 50.5844 5.65319 81.3815 18.1223 105.883L19.9048 104.976C7.8158 81.2214 11.6908 51.3667 31.5288 31.5288L30.1146 30.1146ZM105.884 18.1225C81.3816 5.64484 50.5843 9.63642 30.1144 30.1147L31.5289 31.5286C51.3668 11.6826 81.2213 7.80762 104.976 19.9047L105.884 18.1225ZM145.198 11.0269C140.052 15.028 133.074 18.2796 125.927 19.7816C118.769 21.2857 111.564 21.0117 105.883 18.1223L104.977 19.9049C111.204 23.0724 118.917 23.2983 126.338 21.7388C133.769 20.1772 141.029 16.8017 146.426 12.6058L145.198 11.0269ZM159.305 -0.719304C156.208 2.27166 150.835 6.64637 145.199 11.0267L146.426 12.606C152.06 8.22736 157.512 3.79352 160.695 0.719304L159.305 -0.719304ZM54.0125 30.7269C70.8216 22.0473 90.9831 24.3494 105.995 35.379L107.179 33.7673C91.6002 22.321 70.6276 19.8966 53.0949 28.9498L54.0125 30.7269ZM54.2689 29.1393L54.2606 29.1311L52.8467 30.5456L52.855 30.5539L54.2689 29.1393ZM35.4953 106.078C17.9615 82.1596 24.1231 46.1746 54.0208 30.7351L53.1031 28.9581C22.0681 44.9848 15.6531 82.3934 33.8823 107.261L35.4953 106.078ZM45.0233 106.052C42.2957 108.584 38.0669 108.554 35.3852 105.952L33.9924 107.387C37.4421 110.734 42.8811 110.77 46.384 107.518L45.0233 106.052ZM45.261 105.814L44.9966 106.078L46.4107 107.492L46.6752 107.228L45.261 105.814ZM45.261 45.2445C28.1706 62.3349 28.1706 90.1374 45.261 107.228L46.6752 105.814C30.3658 89.5042 30.3658 62.968 46.6752 46.6587L45.261 45.2445ZM107.244 45.2445C90.1539 28.154 62.3514 28.154 45.261 45.2445L46.6752 46.6587C62.9846 30.3493 89.5207 30.3493 105.83 46.6587L107.244 45.2445ZM105.88 45.1949L105.83 45.2445L107.244 46.6586L107.294 46.6091L105.88 45.1949ZM105.879 35.2793C108.613 38.0208 108.613 42.4544 105.879 45.1958L107.295 46.6082C110.808 43.0861 110.808 37.389 107.295 33.867L105.879 35.2793ZM54.5621 103.14C53.1443 104.57 50.8383 104.573 49.4103 103.145L47.9961 104.559C50.2039 106.767 53.7812 106.769 55.9827 104.547L54.5621 103.14ZM103.081 54.621C87.1644 70.438 70.3721 87.2221 54.5629 103.139L55.9819 104.548C71.7877 88.6349 88.5769 71.854 104.49 56.0396L103.081 54.621ZM103.168 49.3839C104.584 50.8061 104.544 53.1639 103.08 54.6216L104.491 56.039C106.696 53.8443 106.822 50.2196 104.585 47.9729L103.168 49.3839ZM103.136 49.3525L103.169 49.3856L104.584 47.9713L104.55 47.9382L103.136 49.3525ZM49.3772 49.3525C64.1992 34.5305 88.3143 34.5305 103.136 49.3525L104.551 47.9382C88.9475 32.3352 63.5661 32.3352 47.963 47.9382L49.3772 49.3525ZM49.3772 103.112C34.5553 88.2895 34.5553 64.1745 49.3772 49.3525L47.963 47.9382C32.36 63.5413 32.36 88.9227 47.963 104.526L49.3772 103.112ZM49.4103 103.145L49.3772 103.112L47.963 104.526L47.9961 104.559L49.4103 103.145ZM113.011 112.996C124.982 101.033 129.69 83.4196 125.318 67.013L123.385 67.5279C127.574 83.2485 123.061 100.126 111.597 111.581L113.011 112.996ZM66.8769 125.26C83.3258 129.699 101.007 125 113.011 112.995L111.597 111.581C100.101 123.077 83.159 127.583 67.398 123.329L66.8769 125.26ZM51.2048 128.396C55.5073 124.935 61.2898 123.754 66.8771 125.26L67.3978 123.329C61.2183 121.663 54.7713 122.96 49.9512 126.837L51.2048 128.396ZM118.389 118.382C100.386 136.385 72.8678 139.761 51.0907 126.758L50.0653 128.475C72.6284 141.947 101.151 138.448 119.803 119.796L118.389 118.382ZM126.781 51.1073C139.76 72.8848 136.385 100.387 118.389 118.382L119.803 119.796C138.447 101.152 141.946 72.6461 128.499 50.0834L126.781 51.1073ZM125.302 67.0134C123.801 61.373 124.984 55.5535 128.424 51.2168L126.857 49.9739C123.009 54.8259 121.713 61.302 123.369 67.5275L125.302 67.0134ZM124.352 66.2705H124.335V68.2705H124.352V66.2705ZM59.7761 115.923C61.2023 114.573 63.2588 114.124 65.2014 114.679L65.7509 112.756C63.1818 112.022 60.3795 112.598 58.4012 114.471L59.7761 115.923ZM59.5661 116.116L59.7644 115.934L58.413 114.46L58.2146 114.642L59.5661 116.116ZM105.829 105.813C93.2657 118.369 74.6473 121.253 59.2948 114.464L58.486 116.293C74.5666 123.404 94.0744 120.388 107.243 107.228L105.829 105.813ZM114.487 59.3036C121.26 74.6569 118.383 93.259 105.829 105.814L107.243 107.228C120.403 94.0675 123.41 74.5762 116.317 58.4964L114.487 59.3036ZM115.958 59.774L116.139 59.5757L114.665 58.2243L114.483 58.4226L115.958 59.774ZM114.703 65.211C114.148 63.2698 114.596 61.22 115.948 59.784L114.493 58.4126C112.623 60.3976 112.045 63.19 112.78 65.7605L114.703 65.211ZM104.549 104.534C115.179 93.8958 118.558 78.7333 114.703 65.2116L112.78 65.7599C116.444 78.6143 113.229 93.0175 103.135 103.12L104.549 104.534ZM65.2097 114.688C78.7316 118.551 93.911 115.172 104.549 104.534L103.135 103.12C93.0325 113.222 78.6133 116.437 65.7591 112.765L65.2097 114.688ZM64.7687 114.425L64.777 114.433L66.1918 113.019L66.1836 113.011L64.7687 114.425Z" fill="#AEFFB6" mask="url(#path-1-inside-1_2194_358)"/>
</svg>
