<svg width="180" height="40" viewBox="0 0 180 40" fill="none" xmlns="http://www.w3.org/2000/svg">
<path fill-rule="evenodd" clip-rule="evenodd" d="M90.1559 0.32401C86.8279 4.18801 81.5479 9.75201 78.0199 13.448L78.0239 13.444C70.5199 21.22 62.2319 29.38 54.1879 36.588L52.9479 37.7L50.8039 39.676C51.5519 38.904 52.6359 37.572 53.7119 36.188C55.7279 33.596 56.9719 29.184 55.4799 26.256C52.4599 20.32 53.4239 12.86 58.3839 7.90401C63.3439 2.94801 70.7999 1.98001 76.7359 5.00001C79.6639 6.49201 84.0759 5.24801 86.6679 3.23201C88.0519 2.15201 89.3839 1.07201 90.1559 0.32401ZM77.0159 8.82801C73.2519 6.06401 68.1959 5.48401 63.9719 7.66401H63.9679C56.4759 11.536 54.9279 20.56 59.3279 26.56C60.0839 27.292 61.2759 27.3 62.0399 26.588L62.1039 26.524C57.9959 22.416 57.9959 15.732 62.1039 11.624C66.2119 7.51601 72.8959 7.51601 77.0039 11.624L77.0159 11.612C77.7839 10.844 77.7839 9.60001 77.0159 8.82801ZM62.7799 25.868C63.2279 26.316 63.9519 26.316 64.3959 25.868L64.3999 25.864C68.2879 21.952 72.4159 17.82 76.3319 13.932C76.7799 13.484 76.7999 12.748 76.3519 12.296L76.3439 12.288C72.5999 8.54801 66.5119 8.54801 62.7719 12.288C59.0319 16.032 59.0319 22.12 62.7719 25.86L62.7799 25.868ZM99.592 4.116H96.832V29.04H99.592V4.116ZM13.5681 10.008C17.6121 10.008 20.7441 11.66 22.4281 14.22V10.684H25.1921V27.016C25.1921 33.62 20.2401 36.448 14.3121 36.448C11.0441 36.448 7.4761 35.436 5.4881 33.988L6.8001 31.868C8.5481 33.012 11.0081 33.988 14.0401 33.988C19.4321 33.988 22.4281 31.8 22.4281 27.352V25.5C20.7441 28.06 17.2721 29.712 13.5681 29.712C7.4401 29.712 3.6001 25.804 3.6001 19.876C3.6001 13.948 7.4401 10.008 13.5681 10.008ZM20.5881 25.088C21.8121 23.988 22.4281 22.36 22.4281 20.716H22.4321V19.036C22.4321 17.208 21.6401 15.448 20.2081 14.312C18.5521 13 16.5361 12.468 14.2801 12.468C9.2281 12.468 6.4001 15.164 6.4001 19.88C6.4001 24.596 9.2281 27.256 14.2801 27.256C16.7121 27.256 18.8681 26.636 20.5881 25.088ZM32.996 14.488C34.712 11.724 37.812 10.008 41.752 10.008V10.016C47.444 10.016 50.172 13.652 50.172 18.672V29.044H47.412V18.872C47.412 15.472 44.636 12.48 41.236 12.472C38.388 12.464 35.924 13.508 34.188 15.648C33.4 16.62 32.996 17.856 32.996 19.112V29.04H30.236V10.684H32.996V14.488ZM114.589 10.008C120.753 10.008 124.525 13.04 124.525 18.868H124.529V25.468C124.529 26.852 124.765 27.964 125.405 29.04H122.473C121.933 28.128 121.697 27.152 121.697 26.108V26.04C120.249 28.028 117.385 29.712 113.377 29.712C109.369 29.712 104.013 28.06 104.013 23.212C104.013 18.364 109.401 16.712 113.377 16.712C117.353 16.712 120.249 18.364 121.697 20.384V18.868C121.697 14.42 119.169 12.4 114.117 12.4C111.185 12.4 108.965 13.208 106.909 14.52L105.629 12.5C107.785 11.052 111.253 10.008 114.589 10.008ZM113.613 27.42C116.713 27.42 120.181 26.376 121.765 23.548V23.54V22.868C120.181 20.008 116.713 18.996 113.613 18.996C110.917 18.996 106.741 19.772 106.741 23.208C106.741 26.644 110.917 27.42 113.613 27.42ZM141.768 10.008C137.828 10.008 134.728 11.724 133.012 14.488V10.684H130.252V29.04H133.012V19.004C133.012 17.876 133.348 16.76 134.032 15.864C135.776 13.576 138.308 12.464 141.252 12.468C144.652 12.476 147.428 15.468 147.428 18.868V29.04H150.188V18.668C150.188 13.648 147.46 10.012 141.768 10.012V10.008ZM173.636 14.22V4.116H176.4V29.036H173.636V25.5C171.952 28.06 168.816 29.712 164.776 29.712C158.648 29.712 154.808 25.804 154.808 19.876C154.808 13.948 158.648 10.008 164.776 10.008C168.82 10.008 171.952 11.66 173.636 14.22ZM172.5 24.372C173.24 23.528 173.636 22.432 173.636 21.312V21.308V18.404C173.636 17.284 173.24 16.188 172.5 15.344C170.68 13.272 168.26 12.464 165.484 12.464C160.432 12.464 157.604 15.16 157.604 19.876C157.604 24.592 160.432 27.252 165.484 27.252C168.264 27.252 170.68 26.444 172.5 24.372ZM89.5639 25.4559C88.3799 25.4559 87.4199 26.4159 87.4199 27.5999C87.4199 28.7839 88.3799 29.7439 89.5639 29.7439C90.7479 29.7439 91.7079 28.7839 91.7079 27.5999C91.7079 26.4159 90.7479 25.4559 89.5639 25.4559ZM65.3361 28.66C65.7561 28.264 66.3521 28.136 66.9081 28.296C70.1521 29.22 73.7921 28.412 76.3441 25.86C78.8921 23.312 79.7041 19.676 78.7801 16.432C78.6201 15.876 78.7481 15.28 79.1441 14.86L79.1881 14.812C80.8961 18.676 80.1681 23.364 77.0081 26.524C73.8441 29.688 69.1521 30.412 65.2881 28.704L65.3361 28.66ZM81.3879 16.872C82.4399 20.824 81.3079 25.064 78.4239 27.948C75.5319 30.84 71.2759 31.972 67.3159 30.9C65.8679 30.508 64.3639 30.816 63.2439 31.716C68.6959 34.972 75.5879 34.128 80.0999 29.62C84.6039 25.116 85.4519 18.224 82.1999 12.772C81.3039 13.9 80.9999 15.412 81.3879 16.872Z" fill="currentColor"/>
</svg>
